<?xml version="1.0" encoding="utf-8"?>
<!DOCTYPE svg PUBLIC "-//W3C//DTD SVG 1.1//EN" "http://www.w3.org/Graphics/SVG/1.1/DTD/svg11.dtd">
<svg width="100%" height="100%" viewBox="0 0 32 32" version="1.1" xmlns:serif="http://www.serif.com/" xmlns="http://www.w3.org/2000/svg" xmlns:xlink="http://www.w3.org/1999/xlink">
	<circle fill="#2867B2" cx="16" cy="16" r="16"/>
	<path fill="#FFFFFF" d="M20.551,9.197H9.03c-0.515,0-0.966,0.451-1.03,0.965v11.584c0,0.518,0.451,0.965,1.03,0.965h11.521 c0.516,0,0.965-0.447,1.03-0.965V10.162C21.581,9.648,21.131,9.197,20.551,9.197z M12.056,20.717H10.06v-6.436h1.996V20.717z M11.025,13.378c-0.643,0-1.158-0.514-1.158-1.156c0-0.644,0.515-1.159,1.158-1.159c0.644,0,1.158,0.516,1.158,1.159 C12.183,12.865,11.669,13.378,11.025,13.378z M19.583,20.717h-1.992v-3.156c0-0.77,0-1.735-1.031-1.735 c-1.03,0-1.221,0.838-1.221,1.672v3.219h-1.997v-6.436h1.93v0.902c0.389-0.645,1.096-1.096,1.87-1.03 c2.058,0,2.379,1.351,2.379,3.089L19.583,20.717z"/>
	<!-- Registered symbol -->
	<g>
		<path fill="#FFFFFF" d="M23.047,22.803c-0.525,0-0.953-0.428-0.953-0.953s0.428-0.953,0.953-0.953S24,21.324,24,21.85 S23.572,22.803,23.047,22.803z M23.047,21.09c-0.419,0-0.76,0.342-0.76,0.76c0,0.42,0.341,0.76,0.76,0.76s0.76-0.34,0.76-0.76 C23.807,21.432,23.466,21.09,23.047,21.09z"/>
		<path fill="#FFFFFF" d="M22.994,21.773c0.054,0,0.092-0.012,0.115-0.031s0.036-0.053,0.036-0.1c0-0.045-0.013-0.076-0.036-0.098 c-0.023-0.02-0.062-0.029-0.115-0.029h-0.108v0.258H22.994 M22.886,21.949v0.379h-0.257V21.33h0.393 c0.132,0,0.228,0.021,0.289,0.066c0.062,0.043,0.092,0.113,0.092,0.209c0,0.066-0.016,0.119-0.048,0.162 c-0.032,0.041-0.079,0.074-0.145,0.094c0.036,0.008,0.067,0.027,0.096,0.055c0.027,0.027,0.056,0.07,0.084,0.129l0.141,0.283 h-0.274l-0.122-0.248c-0.024-0.051-0.049-0.084-0.074-0.102c-0.025-0.02-0.06-0.029-0.101-0.029H22.886"/>
	</g>
</svg>
