<?xml version="1.0" encoding="UTF-8" standalone="no"?>
<!DOCTYPE svg PUBLIC "-//W3C//DTD SVG 1.1//EN" "http://www.w3.org/Graphics/SVG/1.1/DTD/svg11.dtd">
<svg width="100%" height="100%" viewBox="0 0 80 80" version="1.1" xmlns="http://www.w3.org/2000/svg" xmlns:xlink="http://www.w3.org/1999/xlink" xml:space="preserve" xmlns:serif="http://www.serif.com/" style="fill-rule:evenodd;clip-rule:evenodd;stroke-linejoin:round;stroke-miterlimit:2;">
    <g transform="matrix(1,0,0,1,-1.42109e-14,-89.9591)">
        <g transform="matrix(0.2,0,0,0.2,40,129.959)">
            <g transform="matrix(1,0,0,1,-200,-200)">
                <circle cx="200" cy="200" r="200" style="fill:rgb(29,161,242);"/>
                <path d="M163.4,305.5C252.1,305.5 300.6,232 300.6,168.3C300.6,166.2 300.6,164.1 300.5,162.1C309.9,155.3 318.1,146.8 324.6,137.1C316,140.9 306.7,143.5 296.9,144.7C306.9,138.7 314.5,129.3 318.1,118C308.8,123.5 298.5,127.5 287.5,129.7C278.7,120.3 266.2,114.5 252.3,114.5C225.7,114.5 204.1,136.1 204.1,162.7C204.1,166.5 204.5,170.2 205.4,173.7C165.3,171.7 129.8,152.5 106,123.3C101.9,130.4 99.5,138.7 99.5,147.5C99.5,164.2 108,179 121,187.6C113.1,187.4 105.7,185.2 99.2,181.6L99.2,182.2C99.2,205.6 115.8,225 137.9,229.5C133.9,230.6 129.6,231.2 125.2,231.2C122.1,231.2 119.1,230.9 116.1,230.3C122.2,249.5 140,263.4 161.1,263.8C144.6,276.7 123.8,284.4 101.2,284.4C97.3,284.4 93.5,284.2 89.7,283.7C110.8,297.5 136.2,305.5 163.4,305.5" style="fill:white;fill-rule:nonzero;"/>
            </g>
        </g>
    </g>
</svg>
