<?xml version="1.0" ?>
<!DOCTYPE svg  PUBLIC '-//W3C//DTD SVG 1.1//EN'  'http://www.w3.org/Graphics/SVG/1.1/DTD/svg11.dtd'>
<svg enable-background="new 0 0 128 128" width="100%" height="100%" version="1.1" viewBox="0 0 128 128" xml:space="preserve" xmlns="http://www.w3.org/2000/svg" xmlns:xlink="http://www.w3.org/1999/xlink">
	<linearGradient gradientTransform="matrix(1 0 0 -1 594 633)" gradientUnits="userSpaceOnUse" id="SVGID_1_" x1="-566.7114" x2="-493.2875" y1="516.5693" y2="621.4296">
		<stop offset="0" style="stop-color:#FFB900"/><stop offset="1" style="stop-color:#9100EB"/>
	</linearGradient>
	<circle cx="64" cy="64" fill="url(#SVGID_1_)" r="64"/>
	<g transform="matrix(0.8,0,0,0.8,12.8,12.8)">
		<path d="M 82.333,104 H 45.667 C 33.72,104 24,94.281 24,82.333 V 45.667 C 24,33.719 33.72,24 45.667,24 H 82.333 C 94.281,24 104,33.719 104,45.667 V 82.334 C 104,94.281 94.281,104 82.333,104 Z M 45.667,30.667 c -8.271,0 -15,6.729 -15,15 v 36.667 c 0,8.271 6.729,15 15,15 h 36.666 c 8.271,0 15,-6.729 15,-15 V 45.667 c 0,-8.271 -6.729,-15 -15,-15 z" fill="#FFFFFF"/>
		<path d="M 64,84 C 52.972,84 44,75.027 44,64 44,52.971 52.972,44 64,44 c 11.028,0 20,8.971 20,20 0,11.027 -8.972,20 -20,20 z m 0,-33.333 c -7.352,0 -13.333,5.981 -13.333,13.333 0,7.353 5.981,13.333 13.333,13.333 7.352,0 13.333,-5.98 13.333,-13.333 0,-7.352 -5.98,-13.333 -13.333,-13.333 z" fill="#FFFFFF"/>
		<circle cx="85.25" cy="42.75" fill="#FFFFFF" r="4.583"/>
	</g>
</svg>
