<?xml version="1.0" encoding="UTF-8" standalone="no"?>
<!DOCTYPE svg PUBLIC "-//W3C//DTD SVG 1.1//EN" "http://www.w3.org/Graphics/SVG/1.1/DTD/svg11.dtd">
<svg width="100%" height="100%" viewBox="0 0 80 80" version="1.1" xmlns="http://www.w3.org/2000/svg" xmlns:xlink="http://www.w3.org/1999/xlink" xml:space="preserve" xmlns:serif="http://www.serif.com/" style="fill-rule:evenodd;clip-rule:evenodd;stroke-linejoin:round;stroke-miterlimit:2;">
	<g transform="matrix(1,0,0,1,1.42109e-14,-179.959)">
		<g id="Youtube" transform="matrix(1,0,0,1,-360,-491.843)">
			<g serif:id="Youtube" transform="matrix(0.59477,0,0,0.640915,262.596,584.904)">
				<ellipse cx="231.021" cy="197.995" rx="67.253" ry="62.411" style="fill:rgb(255,0,0);"/>
			</g>
			<g transform="matrix(0.296875,0,0,0.296875,400,711.802)">
				<g transform="matrix(1,0,0,1,-96,-96)">
					<g transform="matrix(1,0,0,1,78,69.8309)">
						<path d="M0,52.338L0,0L46,26.17L0,52.338ZM102.322,-16.468C100.298,-24.09 94.334,-30.092 86.762,-32.129C73.037,-35.831 18,-35.831 18,-35.831C18,-35.831 -37.037,-35.831 -50.762,-32.129C-58.334,-30.092 -64.298,-24.09 -66.322,-16.468C-70,-2.654 -70,26.169 -70,26.169C-70,26.169 -70,54.991 -66.322,68.806C-64.298,76.428 -58.334,82.43 -50.762,84.468C-37.037,88.169 18,88.169 18,88.169C18,88.169 73.037,88.169 86.762,84.468C94.334,82.43 100.298,76.428 102.322,68.806C106,54.991 106,26.169 106,26.169C106,26.169 106,-2.654 102.322,-16.468" style="fill:white;fill-rule:nonzero;"/>
					</g>
				</g>
			</g>
		</g>
	</g>
</svg>
