<!-- Generated by IcoMoon.io -->
<svg version="1.1" xmlns="http://www.w3.org/2000/svg" width="37" height="32" viewBox="0 0 37 32">
<title>chart-line</title>
<path d="M36.576 27.424v2.304h-36.576v-27.456h2.272v25.152h34.304zM34.272 5.152v7.744q0 0.384-0.32 0.544t-0.64-0.128l-2.176-2.176-11.296 11.296q-0.192 0.192-0.416 0.192t-0.416-0.192l-4.16-4.16-7.424 7.456-3.424-3.456 10.464-10.432q0.16-0.192 0.384-0.192t0.416 0.192l4.16 4.16 8.288-8.288-2.144-2.176q-0.288-0.256-0.16-0.608t0.544-0.352h7.776q0.224 0 0.384 0.16t0.16 0.416z"></path>
</svg>
